<?xml version="1.0" encoding="UTF-8"?>
<!-- Created with Inkscape (http://www.inkscape.org/) -->
<svg width="76.713mm" height="56.876mm" version="1.1" viewBox="0 0 76.713 56.876" xml:space="preserve" xmlns="http://www.w3.org/2000/svg"><g transform="translate(-4.1411 -3.6492)"><path d="m20.49 60.477c-0.12705-0.0341-0.40244-0.079-0.61199-0.0998-0.42601-0.0424-1.5629-0.3616-2.331-0.65451-0.27792-0.10598-0.53389-0.18476-0.56882-0.17506-0.03493 0.01-0.0635-0.0227-0.0635-0.072s-0.0381-0.0661-0.08467-0.0373-0.08467 6e-3 -0.08467-0.0515c0-0.0571-0.02359-0.0802-0.05241-0.0514-0.02883 0.0288-0.1081-3e-3 -0.17616-0.0713-0.06806-0.0681-0.15878-0.1021-0.20159-0.0756-0.04281 0.0265-0.07784 0.0139-0.07784-0.028 0-0.0715-0.42744-0.30576-0.49853-0.27318-0.01808 8e-3 -0.05618-0.0213-0.08467-0.0658-0.05375-0.0839-1.3397-1.119-1.3902-1.119-0.05918 0-1.3286-1.3028-1.3286-1.3635 0-0.0349-0.09525-0.13842-0.21167-0.23-0.11642-0.0916-0.21167-0.20831-0.21167-0.25943 0-0.0511-0.0762-0.14051-0.16933-0.19868-0.09313-0.0582-0.16933-0.14524-0.16933-0.19351 0-0.0483-0.11215-0.21056-0.24923-0.36064-0.13708-0.15007-0.23268-0.27286-0.21245-0.27286 0.05215 0-0.4878-0.87816-0.57847-0.9408-0.04124-0.0285-0.07678-0.0856-0.07898-0.127-0.0045-0.084-0.5078-1.1518-0.57421-1.2182-0.02328-0.0233-0.05567-0.11854-0.07197-0.21167-0.0163-0.0931-0.0721-0.24553-0.124-0.33867-0.0519-0.0931-0.10047-0.19791-0.10794-0.23283-0.0075-0.0349-0.02126-0.073-0.03064-0.0847-0.0094-0.0116-0.02913-0.0783-0.04388-0.14816-0.01475-0.0699-0.10867-0.4318-0.20872-0.80434-0.40006-1.4897-0.39859-2.8574 0.0045-4.16 0.09895-0.31974 0.18663-0.61945 0.19486-0.66602 0.0082-0.0466 0.05694-0.16086 0.10825-0.254 0.05131-0.0931 0.10663-0.24553 0.12293-0.33866 0.0163-0.0931 0.04869-0.18839 0.07197-0.21167 0.02328-0.0233 0.21362-0.38523 0.42298-0.80433s0.40117-0.78105 0.42625-0.80434c0.02508-0.0233 0.13225-0.15663 0.23815-0.29633 0.20786-0.2742 1.448-1.5663 1.5033-1.5663 0.01848 0 0.21467-0.12888 0.43596-0.2864 0.43906-0.31252 1.2531-0.7475 1.4703-0.78568 0.07514-0.0132 0.24659-0.069 0.381-0.12391 0.13441-0.0549 0.32058-0.11428 0.41371-0.13186 0.09313-0.0176 0.32136-0.0728 0.50717-0.1228 0.35726-0.0961 0.65868-0.14768 1.1438-0.1959 0.16298-0.0162 4.7406-0.0331 10.173-0.0375 5.4319-4e-3 9.9277-0.0278 9.9907-0.0519l0.11444-0.0439-0.01403-6.5893-0.01403-6.5892 0.16673-0.62764c0.0917-0.3452 0.286-0.82595 0.43177-1.0683l0.26504-0.44068 0.23843-0.0988c0.13114-0.0543 0.23843-0.12589 0.23843-0.15904 0-0.0332 0.04762-0.0626 0.10583-0.0653 0.05821-3e-3 0.31538-0.0638 0.5715-0.13554l0.46567-0.13049-1.1853-0.0221c-1.4532-0.0271-1.6489-0.04-2.2738-0.14989-0.27268-0.0479-0.52033-0.0823-0.55033-0.0763-0.03 6e-3 -0.1498-0.0161-0.26622-0.049-0.11642-0.0329-0.30692-0.0722-0.42333-0.0871-0.11642-0.015-0.31892-0.0705-0.45001-0.12331-0.13109-0.0529-0.30254-0.0967-0.381-0.0973-0.07846-6.9e-4 -0.59986-0.15653-1.1587-0.34632-0.5588-0.18978-1.0541-0.35298-1.1007-0.36265-0.04657-0.01-0.17039-0.0647-0.27517-0.12234-0.10478-0.0576-0.19108-0.0748-0.1918-0.0383-7.14e-4 0.0366-0.02929 0.0263-0.0635-0.0228-0.07181-0.10304-1.3852-0.74979-1.4804-0.72897-0.03493 8e-3 -0.0635-0.0155-0.0635-0.0514s-0.18098-0.15972-0.40217-0.27517c-0.22119-0.11544-0.42122-0.23146-0.4445-0.25782-0.02328-0.0264-0.23283-0.17553-0.46567-0.33149-0.23283-0.15597-0.66064-0.46778-0.95068-0.69291-0.29004-0.22514-0.56309-0.40934-0.60678-0.40934-0.04369 0-0.09213-0.0355-0.10765-0.0789-0.04996-0.13974-1.7868-1.6144-1.9015-1.6144-0.06088 0-0.23581 0.0531-0.38873 0.11806-0.15292 0.0649-0.39234 0.16683-0.53204 0.22645-0.1397 0.0596-0.27829 0.10316-0.30797 0.0968-0.02968-6e-3 -0.18208 0.0301-0.33867 0.0811l-0.2847 0.0927-7.6823-0.0338-0.68853-0.20827c-0.37869-0.11455-0.72728-0.2177-0.77464-0.22924-0.04736-0.0115-0.2233-0.10576-0.39099-0.2094-0.16769-0.10363-0.34802-0.18843-0.40073-0.18843-0.05271 0-0.09584-0.0381-0.09584-0.0847s-0.03309-0.0847-0.07353-0.0847c-0.06406 0-0.85781-0.7467-0.85781-0.80697 0-0.0125-0.13372-0.22139-0.29717-0.46427-0.16344-0.24287-0.31997-0.53245-0.34784-0.64351-0.02787-0.11105-0.0869-0.20192-0.13116-0.20192-0.04427 0-0.05891-0.0349-0.03255-0.0776s0.0042-0.18553-0.04931-0.3175c-0.05349-0.13196-0.10435-0.29709-0.11304-0.36694-0.0087-0.0699-0.04571-0.2794-0.08228-0.46566-0.11103-0.56557-0.12411-0.89959-0.16241-4.1487l-0.03693-3.1327 0.07898-0.0969c0.04344-0.0533 0.07039-0.1295 0.05988-0.16933-0.151-0.57249 0.83874-2.0206 1.6697-2.4431 0.1832-0.0931 0.35641-0.20116 0.3849-0.24006s0.0772-0.0633 0.10825-0.0543 0.14109-0.0106 0.24453-0.0438c0.29092-0.0932 0.41162-0.11885 0.83645-0.1775l0.39437-0.0544 0.05303 0.53904c0.02916 0.29647 0.06392 2.6917 0.07724 5.3227l0.02421 4.7837 0.1156 0.33867c0.06358 0.18627 0.12282 0.36724 0.13165 0.40217 0.0088 0.0349 0.02364 0.073 0.03292 0.0847 0.0093 0.0117 0.03328 0.10967 0.05333 0.21784 0.11264 0.60772 1.1259 2.047 1.4411 2.047 0.06518 0 0.11874 0.0286 0.11904 0.0635 5.46e-4 0.0648 0.48825 0.36881 0.53848 0.3357 0.01519-0.01 0.08848 0.0323 0.16286 0.094 0.07438 0.0617 0.33741 0.16606 0.58451 0.23183l0.44928 0.11959h1.6933l0.43602-0.11609c0.93617-0.24927 2.0363-1.0864 2.4426-1.8589l0.16933-0.32187-0.1905-0.15532c-0.10478-0.0854-0.1905-0.19652-0.1905-0.24687 0-0.0503-0.0762-0.13913-0.16933-0.19729-0.09313-0.0582-0.16933-0.15493-0.16933-0.21504 0-0.0601-0.05715-0.13122-0.127-0.15803-0.06985-0.0268-0.127-0.0823-0.127-0.1234s-0.16648-0.29416-0.36996-0.56244c-0.20348-0.26828-0.63012-0.88783-0.9481-1.3768s-0.61822-0.91699-0.66721-0.9512c-0.04899-0.0342-0.05915-0.0628-0.02259-0.0635 0.03656-7.1e-4 0.02319-0.0822-0.02971-0.18103l-0.09619-0.17973 0.21755 0.15857c0.11965 0.0872 0.21875 0.19835 0.22021 0.24697 0.0023 0.078 1.9125 2.0601 2.585 2.6824 0.64997 0.6014 0.65361 0.57118 0.68996-5.7341 0.01584-2.7474 0.04871-5.0478 0.07304-5.1119l0.04424-0.11655 0.44304 0.0585c0.24368 0.0322 0.67165 0.15264 0.95105 0.26769 0.2794 0.11504 0.5461 0.21736 0.59267 0.22736 0.50576 0.10866 1.4273 1.3998 1.6063 2.2504l0.12997 0.61784-0.01765 3.3586c-0.0097 1.8472-0.04594 3.4539-0.08052 3.5703s-0.10404 0.42336-0.15436 0.6821c-0.10208 0.52485-0.49932 1.42-0.81263 1.8311-0.20778 0.27266-0.27625 0.50394-0.12072 0.40782 0.04657-0.0288 0.08467-0.0166 0.08467 0.0271 0 0.0806 0.45271 0.30012 0.5584 0.2708 0.03172-9e-3 0.08097 0.0204 0.10946 0.065 0.06257 0.0978 1.9121 0.84179 2.2108 0.88933 0.11642 0.0185 0.32111 0.0786 0.45487 0.13344 0.13376 0.0549 0.34331 0.11296 0.46567 0.12911 0.12235 0.0161 0.27961 0.0516 0.34946 0.0788 0.13947 0.0543 0.19588 0.0654 1.6087 0.31487l0.97367 0.17197 1.2277 0.0121c1.266 0.0124 2.1314-0.0495 2.794-0.2001 0.20955-0.0476 0.47625-0.10233 0.59267-0.12158 0.95259-0.15751 1.3254-0.23699 1.4048-0.2995 0.05085-0.04 0.1166-0.0486 0.14612-0.0191 0.02952 0.0295 0.10572 0.0105 0.16933-0.0423 0.06362-0.0528 0.13387-0.0778 0.15611-0.0556 0.04331 0.0433 1.2269-0.26732 1.3777-0.36156 0.04967-0.031 0.14875-0.0656 0.22018-0.0767 0.07143-0.0112 0.28098-0.0857 0.46567-0.16559 0.18469-0.0799 0.37389-0.15336 0.42046-0.16322 0.22118-0.0468 1.2761-0.49952 1.3218-0.56722 0.02849-0.0422 0.06659-0.0667 0.08467-0.0544 0.0724 0.0492 0.8372-0.29079 0.8372-0.37213 0-0.048 0.02351-0.0638 0.05224-0.035 0.06089 0.0609 1.7543-0.76989 1.7965-0.88134 0.0156-0.0413 0.0635-0.0534 0.10643-0.0268 0.0429 0.0265 0.10089-0.0113 0.12883-0.0841 0.0279-0.0728 0.10115-0.13236 0.16269-0.13236 0.0615 0 0.16224-0.0492 0.22377-0.10941 0.0615-0.0602 0.23571-0.16005 0.38705-0.22194 0.15134-0.0619 0.27517-0.14601 0.27517-0.18692 0-0.0409 0.0544-0.0744 0.12095-0.0744 0.0665 0 0.18082-0.0599 0.254-0.13305 0.0732-0.0732 0.13305-0.1103 0.13305-0.0825 0 0.0727 0.53838-0.21335 0.61253-0.32544 0.0342-0.0517 0.0628-0.066 0.0635-0.0316 1e-3 0.061 1.3569-0.5884 1.4406-0.69008 0.0233-0.0283 0.24236-0.14326 0.48684-0.2555 0.24447-0.11225 0.4445-0.23568 0.4445-0.27428s0.0286-0.0632 0.0635-0.0547c0.0989 0.0241 0.86783-0.37963 0.86783-0.4557 0-0.0373 0.0325-0.0678 0.0723-0.0678s0.52553-0.21697 1.0795-0.48215 1.0453-0.48997 1.0919-0.49952c0.0466-0.01 0.462-0.155 0.92318-0.32323s1.0704-0.36596 1.3539-0.43942c0.28345-0.0734 0.55221-0.15631 0.59724-0.18414 0.045-0.0278 0.15968-0.0596 0.25479-0.0706 0.0951-0.011 0.61106-0.10018 1.1466-0.19816 1.6304-0.29829 3.7534-0.39069 5.08-0.22109 0.30268 0.0387 0.66463 0.0826 0.80433 0.0976s0.50165 0.0888 0.80434 0.16401c0.30268 0.0752 0.62814 0.14595 0.72324 0.15719 0.0951 0.0112 0.21893 0.0489 0.27517 0.0836 0.0562 0.0348 0.13772 0.0413 0.18107 0.0145 0.0434-0.0268 0.10008-0.0143 0.12606 0.0277 0.026 0.042 0.19055 0.10639 0.36569 0.14298 0.36158 0.0755 0.42819 0.0922 0.48777 0.122 0.0233 0.0116 0.0709 0.0292 0.10583 0.0391 0.0349 0.01 0.1397 0.0492 0.23283 0.0875 0.41841 0.17192 1.0235 0.4009 1.1007 0.41648 0.0466 9e-3 0.24187 0.099 0.43401 0.19908 0.19215 0.10009 0.37312 0.15821 0.40217 0.12916 0.029-0.0291 0.0528-6e-3 0.0528 0.051 0 0.0571 0.0381 0.0802 0.0847 0.0514s0.0851-0.0215 0.0856 0.0162 0.29578 0.2209 0.65617 0.40717c0.36039 0.18626 0.6743 0.35955 0.69759 0.38508 0.13819 0.15151 0.57799 0.4057 0.62339 0.3603 0.0297-0.0297 0.0539-9e-3 0.0539 0.0448 0 0.0543 0.0349 0.0988 0.0775 0.0988s0.16643 0.075 0.27516 0.16671c0.10873 0.0917 0.55964 0.45442 1.002 0.80604 1.5804 1.2562 4.3166 3.9 4.3184 4.1725 2.3e-4 0.034 0.13358 0.20674 0.29634 0.38396s0.29611 0.34867 0.29633 0.381c2.2e-4 0.0323 0.13252 0.20263 0.29399 0.37844 0.16147 0.1758 0.29396 0.33818 0.29442 0.36084 1e-3 0.0692 1.0426 1.602 1.1258 1.6573 0.0428 0.0285 0.0743 0.0856 0.0699 0.127-4e-3 0.0414 0.0492 0.14187 0.11894 0.22336 0.0698 0.0815 0.10352 0.14817 0.075 0.14817-0.0285 0-4e-3 0.0581 0.0552 0.12905 0.504 0.60727-0.12457 0.0731-0.6975-0.59272-0.69883-0.81218-1.706-1.8223-1.8169-1.8223-0.0616 0-0.11198-0.0362-0.11198-0.0806 0-0.0871-1.1542-1.0916-1.3416-1.1676-0.0627-0.0254-0.23307-0.15503-0.3787-0.28804s-0.31343-0.24184-0.37291-0.24184c-0.0595 0-0.10813-0.0298-0.10813-0.0661 0-0.0884-1.3332-0.86759-2.0743-1.2124-1.1322-0.52675-1.2561-0.57654-1.3264-0.53313-0.0389 0.024-0.0706 9e-3 -0.0706-0.0327 0-0.18606-2.9891-0.94374-4.318-1.0945-0.73934-0.0839-3.22-0.0828-3.8523 2e-3 -0.83632 0.11174-2.7025 0.49472-2.8018 0.57499-0.0508 0.0411-0.11661 0.0506-0.14612 0.0211-0.0295-0.0295-0.10572-0.0105-0.16934 0.0423-0.0636 0.0528-0.1382 0.0735-0.16574 0.0459-0.0275-0.0275-0.10024-0.0187-0.16155 0.0198-0.0613 0.0384-0.19865 0.0818-0.30522 0.0965-0.10656 0.0146-0.29706 0.0694-0.42333 0.12164-0.12627 0.0523-0.2597 0.0883-0.29651 0.0802-0.0368-8e-3 -0.15111 0.032-0.254 0.0892s-0.21564 0.11009-0.25057 0.11756c-0.0349 7e-3 -0.0825 0.0231-0.10583 0.0348-0.0233 0.0116-0.0709 0.0275-0.10584 0.0354-0.1902 0.0425-0.77182 0.25696-0.97278 0.35867-0.12757 0.0646-0.25179 0.11585-0.27605 0.11397-0.0243-2e-3 -0.16753 0.0619-0.31839 0.14183-0.15085 0.0799-0.31764 0.15287-0.37064 0.16217-0.2182 0.0383-2.486 1.1679-2.486 1.2383 0 0.042-0.0336 0.0556-0.0747 0.0302s-0.16542 0.0252-0.27629 0.11238c-0.34822 0.27391-1.0809 0.68274-2.6335 1.4694-0.82656 0.4188-1.5028 0.80117-1.5028 0.84972 0 0.0485-0.0233 0.0649-0.0518 0.0364-0.0452-0.0452-0.93544 0.40226-1.0488 0.52727-0.0233 0.0257-0.48048 0.25621-1.016 0.51233-0.53551 0.25611-1.0017 0.50376-1.0359 0.55033-0.0342 0.0466-0.0628 0.0548-0.0635 0.0182-7.1e-4 -0.0366-0.087-0.0194-0.19179 0.0382-0.10478 0.0576-0.26542 0.11708-0.35699 0.13224-0.09157 0.0152-0.25349 0.0846-0.35983 0.15426-0.10634 0.0697-0.19335 0.1021-0.19335 0.072s-0.05715-7e-3 -0.127 0.0508c-0.06985 0.058-0.127 0.0839-0.127 0.0577s-0.27622 0.0472-0.61383 0.16325c-0.70105 0.24088-2.6487 0.70874-3.1538 0.7576-0.18627 0.018-0.48653 0.0571-0.66726 0.0867l-0.32859 0.054 0.11692 0.074c0.06431 0.0407 0.19312 0.0755 0.28626 0.0772 0.09313 2e-3 0.33195 0.077 0.53071 0.16718 0.19876 0.0902 0.38872 0.1751 0.42215 0.18864 0.13324 0.054 0.85434 0.90818 0.90717 1.0746 0.03101 0.0977 0.09827 0.17765 0.14946 0.17765 0.05119 0 0.07115 0.0219 0.04436 0.0487s-0.01314 0.16966 0.03034 0.3175l0.07904 0.26879-0.0034 7.0697c-0.0019 3.8883-0.02095 7.1649-0.04244 7.2813-0.02149 0.11641-0.0495 0.28786-0.06224 0.381-0.01275 0.0931-0.05079 0.19003-0.08454 0.21534-0.03375 0.0253-0.07291 0.12055-0.08702 0.21166-0.0729 0.47069-1.0305 1.8175-1.711 2.4065-0.33356 0.2887-1.3162 0.93417-1.4222 0.93417-0.02315 0-0.18961 0.0644-0.36992 0.14302-0.18031 0.0787-0.34689 0.14706-0.37017 0.15199-0.02328 5e-3 -0.19444 0.0393-0.38036 0.0763s-0.37449 0.0899-0.41906 0.11745c-0.04457 0.0275-0.15916 0.0589-0.25464 0.0697-0.40889 0.0462-0.95949 0.13484-1.2743 0.20524l-0.33867 0.0757-8.9323 7e-3c-12.007 9e-3 -12.492 0.0188-13.098 0.26868-0.13045 0.0538-0.2848 0.09-0.34301 0.0805-0.05821-0.01-0.10583 0.0225-0.10583 0.0711s-0.02858 0.0839-0.0635 0.0784c-0.03493-6e-3 -0.09207-7.5e-4 -0.127 0.0106-0.03493 0.0113-0.09331 0.0254-0.12974 0.0312-0.18323 0.0293-0.78042 0.34258-0.78042 0.40944 0 0.0422-0.03409 0.0557-0.07575 0.03-0.11413-0.0705-1.1367 0.95656-1.3853 1.3915-0.30958 0.54151-0.45998 1.1293-0.47843 1.8698l-0.016 0.6421 0.17951 0.47979c0.09873 0.26389 0.2321 0.53238 0.29638 0.59666 0.06428 0.0643 0.09418 0.13955 0.06644 0.16728-0.02773 0.0277 0.01218 0.0744 0.0887 0.1038s0.13912 0.10042 0.13912 0.15791c0 0.18293 1.7115 1.7186 1.8685 1.6765 0.04337-0.0116 0.07886 0.0151 0.07886 0.0594 0 0.21114 2.344 1.2683 2.5415 1.1462 0.03929-0.0243 0.09698-3e-3 0.12819 0.0477 0.03121 0.0505 0.10882 0.0718 0.17247 0.0474 0.06365-0.0244 0.13579-0.0119 0.16032 0.0277 0.03698 0.0598 1.1169 0.23609 1.5695 0.25618 0.06985 3e-3 0.71755 0.0263 1.4393 0.0516l1.3123 0.046 0.67733-0.0964c0.37253-0.053 0.73448-0.11791 0.80433-0.14416 0.06985-0.0263 0.18415-0.0523 0.254-0.0578 0.3082-0.0244 1.1007-0.25318 1.1007-0.31775 0-0.0392 0.02858-0.0667 0.0635-0.0612 0.03493 6e-3 0.09207 7.5e-4 0.127-0.0106 0.03493-0.0113 0.1016-0.0301 0.14817-0.0418 0.04657-0.0116 0.09419-0.0288 0.10583-0.038 0.01164-9e-3 0.11235-0.0337 0.2238-0.0542 0.11145-0.0206 0.37815-0.12793 0.59267-0.23863 0.21452-0.11069 0.51386-0.24807 0.6652-0.30528 0.15134-0.0572 0.27517-0.13975 0.27517-0.18341 0-0.0437 0.0381-0.0559 0.08467-0.0271s0.08467 0.01 0.08467-0.0423c0-0.0521 0.0381-0.0711 0.08467-0.0423s0.08467 0.01 0.08467-0.0423c0-0.0521 0.0381-0.0711 0.08467-0.0423s0.08467 0.01 0.08467-0.0423c0-0.0521 0.0381-0.0711 0.08467-0.0423s0.08467 0.01 0.08467-0.0423c0-0.0521 0.0381-0.0711 0.08467-0.0423s0.08481 0.0215 0.08498-0.0162c1.74e-4 -0.0377 0.17162-0.13895 0.381-0.22505 0.20938-0.0861 0.38068-0.19723 0.38068-0.24695 0-0.0497 0.02103-0.0694 0.04673-0.0437 0.07876 0.0788 2.2104-1.0505 2.3438-1.2417 0.03421-0.049 0.06279-0.0609 0.0635-0.0264 0.0014 0.0697 0.86016-0.43394 0.9421-0.55254 0.02849-0.0412 0.08564-0.0768 0.127-0.079 0.12288-7e-3 1.1734-0.52637 1.2043-0.59591 0.01562-0.0352 0.06017-0.0444 0.09901-0.0204 0.03883 0.024 0.12947-0.0152 0.20141-0.0872 0.07194-0.0719 0.15147-0.12893 0.17674-0.12664 0.09163 8e-3 0.93453-0.44499 0.96218-0.51743 0.01562-0.0409 0.06324-0.0529 0.10583-0.0266 0.04259 0.0263 0.07744 5e-3 0.07744-0.0468 0-0.0521 0.03485-0.0731 0.07744-0.0468s0.09021 0.019 0.10583-0.0162c0.01562-0.0352 0.28552-0.19738 0.59978-0.36036s0.57144-0.32491 0.5715-0.35983c6.2e-5 -0.0349 0.02869-0.0545 0.06361-0.0434 0.11339 0.0359 0.61383-0.20743 0.61383-0.29852 0-0.0487 0.02172-0.0668 0.04827-0.0402 0.02655 0.0265 0.40136-0.119 0.83293-0.32343 0.43156-0.20444 1.3528-0.56227 2.0472-0.79519s1.2626-0.42655 1.2626-0.43029c0-4e-3 0.09525-0.0218 0.21167-0.0401 0.11642-0.0183 0.57362-0.11136 1.016-0.20675 1.3605-0.29339 1.7577-0.33045 3.5983-0.33574 1.5177-4e-3 1.8408 0.0155 2.5654 0.15785 0.24678 0.0485 0.47538 0.0827 0.508 0.0761 0.0326-7e-3 0.11646 9e-3 0.18631 0.0347 0.17881 0.0659 1.2862 0.34653 1.4393 0.36479 0.0699 8e-3 0.18415 0.0362 0.254 0.062 0.48019 0.17719 0.92546 0.29297 0.96697 0.25146 0.027-0.027 0.049-8e-3 0.049 0.043 0 0.0852 0.46949 0.24297 0.61384 0.2063 0.0349-9e-3 0.0635 0.0178 0.0635 0.0594 0 0.0736 0.4027 0.22006 0.52916 0.1924 0.0349-8e-3 0.0635 0.0242 0.0635 0.0708s0.0361 0.0847 0.0803 0.0847c0.0441 0 0.43467 0.19498 0.86784 0.4333 0.43317 0.23831 0.8352 0.43516 0.89341 0.43744 0.0582 2e-3 0.10583 0.0321 0.10583 0.0663 0 0.1051 0.60022 0.42291 0.69181 0.36631 0.0474-0.0293 0.0686-0.14493 0.0472-0.257s-5e-3 -0.225 0.0374-0.25094c0.042-0.0259 0.0783-0.18697 0.0807-0.35782 2e-3 -0.17085 0.0182-1.8234 0.0351-3.6725l0.0307-3.3618-2.2183-3e-3c-2.519-3e-3 -3.0104-0.0314-3.9321-0.22739-0.36125-0.0768-0.71463-0.14571-0.7853-0.15305-0.0707-7e-3 -0.17544-0.0424-0.23283-0.0778-0.0574-0.0355-0.10435-0.0461-0.10435-0.0236s-0.27197-0.10861-0.60439-0.29134c-0.33241-0.18272-0.63314-0.33222-0.66827-0.33222-0.0351 0-0.0858-0.0572-0.11262-0.127-0.0268-0.0699-0.0842-0.127-0.12759-0.127-0.07852 0-0.68846-0.57448-0.68846-0.64843 0-0.0551-0.53326-0.73603-0.635-0.81077-0.04657-0.0342-0.05803-0.0628-0.02548-0.0635 0.03255-7.1e-4 -0.06103-0.23942-0.20797-0.53047-0.14694-0.29104-0.27358-0.55774-0.28144-0.59266-0.0079-0.0349-0.02196-0.073-0.03134-0.0847-0.2321-0.28795-0.36986-3.6313-0.24857-6.0325l0.06415-1.27 0.20981-0.60707c0.1154-0.33388 0.18772-0.62916 0.16071-0.65616-0.02701-0.027-0.01116-0.0491 0.03521-0.0491s0.17654-0.20003 0.28928-0.4445c0.11274-0.24448 0.2683-0.51477 0.34571-0.60066 0.07741-0.0859 0.28696-0.34175 0.46567-0.56857 0.17871-0.22683 0.38208-0.43236 0.45193-0.45674 0.06985-0.0244 0.22225-0.13138 0.33866-0.23778 0.25579-0.23377 0.97667-0.55767 1.9473-0.87496l0.71966-0.23525 3.429-5e-3c3.1758-5e-3 3.7194 0.015 4.064 0.14875 0.0699 0.0271 0.29464 0.0923 0.49953 0.14481 1.0585 0.27144 3.2258 1.6857 3.2258 2.105 0 0.0293 0.0863 0.14808 0.1917 0.26402 0.10543 0.11594 0.26362 0.37273 0.35152 0.57064s0.19439 0.35983 0.23663 0.35983c0.0422 0 0.0549 0.0355 0.0281 0.0788-0.0268 0.0434-9e-3 0.10313 0.0387 0.13285 0.0481 0.0297 0.0671 0.0869 0.0423 0.127s-6e-3 0.0973 0.0423 0.127c0.0481 0.0297 0.0655 0.0895 0.0387 0.13285-0.0268 0.0434-0.0213 0.12318 0.0122 0.17741 0.16006 0.25897 0.19244 1.7747 0.21179 9.9132 0.01 4.1328 0.0284 7.5142 0.0414 7.5142 0.0129 0 0.13078-0.0444 0.26187-0.0987 0.27963-0.11585 0.25828-0.10845 0.55585-0.19251 0.12805-0.0362 0.23283-0.102 0.23283-0.14626 0-0.0443 0.035-0.0588 0.0778-0.0324 0.0428 0.0265 0.13806-0.0121 0.21167-0.0857 0.0736-0.0736 0.13382-0.11151 0.13382-0.0842 0 0.0273 0.1524-0.0513 0.33867-0.17454 0.18626-0.12326 0.33866-0.25715 0.33866-0.29753 0-0.0404 0.0444-0.0734 0.0987-0.0734s0.15908-0.0539 0.23284-0.11972c0.60317-0.53852 1.2771-1.3126 1.2771-1.4669 0-0.0587 0.0341-0.10672 0.0757-0.10672 0.085 0 0.74907-1.3033 0.79812-1.5663 0.0174-0.0931 0.0783-0.28364 0.13534-0.42334 0.52033-1.2737 0.5506-1.8652 0.55413-10.829l3e-3 -7.6115-0.21167-0.0428c-0.9324-0.18833-3.8115 0.0192-4.3878 0.31621-0.64591 0.33296-1.2148 1.2006-1.3359 2.0374-0.0675 0.46628-0.11692 0.56149-0.21386 0.41179-0.10244-0.15819-0.5045-1.4123-0.55255-1.7235-0.0216-0.1397-0.0766-0.4826-0.12228-0.762-0.0457-0.2794-0.08-1.0604-0.0762-1.7357l7e-3 -1.2277 0.1296-0.50123c0.0713-0.27567 0.24161-0.72313 0.37852-0.99434 0.1369-0.27121 0.25793-0.52191 0.26895-0.5571 0.16512-0.52736 1.8713-1.4004 3.1954-1.6352 0.79894-0.14162 3.8604-0.0566 4.318 0.11998 0.0699 0.0269 0.2413 0.0661 0.381 0.087s0.26352 0.0459 0.27517 0.0555c0.0116 0.01 0.0497 0.0243 0.0847 0.0326 0.0349 8e-3 0.27305 0.10792 0.52916 0.22146 0.25612 0.11353 0.49424 0.19726 0.52917 0.18605 0.0349-0.0112 0.0635 0.02 0.0635 0.0693s0.0348 0.0681 0.0774 0.0418 0.0902-0.019 0.10583 0.0162c0.0156 0.0352 0.24364 0.2089 0.50671 0.38596 0.62109 0.41805 1.497 1.3527 1.7654 1.8838 0.11641 0.23038 0.23071 0.43793 0.254 0.46121 0.0233 0.0233 0.0551 0.0995 0.0706 0.16934 0.0156 0.0699 0.0816 0.33655 0.14665 0.59266 0.17703 0.69647 0.20181 1.8928 0.20693 9.9907l5e-3 7.4083-0.13699 0.97366c-0.15987 1.1362-0.16856 1.1871-0.23124 1.3547-0.0849 0.22691-0.33026 1.0206-0.34793 1.1255-0.01 0.0562-0.0617 0.18284-0.11599 0.28149-0.0543 0.0987-0.0747 0.20343-0.0453 0.23284 0.0294 0.0294 0.0116 0.0535-0.0396 0.0535-0.0856 0-0.1899 0.20443-0.18511 0.36286 1e-3 0.0366-0.0565 0.12503-0.12801 0.19655-0.0715 0.0715-0.13003 0.18445-0.13003 0.25097 0 0.0665-0.0317 0.12096-0.0704 0.12096s-0.12442 0.10477-0.1905 0.23283c-0.2013 0.39012-1.5247 1.7065-2.0658 2.0549-0.28029 0.18045-0.55724 0.36969-0.61545 0.42053-0.0582 0.0508-0.10584 0.0743-0.10584 0.0521s-0.23812 0.0671-0.52916 0.19843-0.85302 0.34196-1.2488 0.46807c-0.39581 0.1261-0.77681 0.24915-0.84666 0.27345-0.0698 0.0243-0.2413 0.0539-0.381 0.0658s-0.5207 0.0457-0.84667 0.0752c-0.32597 0.0294-1.2684 0.0549-2.0943 0.0565l-1.5016 3e-3 4e-3 0.18752c0.0206 0.9018-0.66712 3.1504-1.2549 4.1034-0.15081 0.24447-0.25744 0.4445-0.23696 0.4445 0.0205 0-0.094 0.14287-0.25438 0.3175-0.36775 0.40039-0.36538 0.44534 0.0462 0.87805 0.18627 0.1958 0.33867 0.38575 0.33867 0.42209 0 0.0363 0.0673 0.11587 0.14963 0.17672 0.0823 0.0608 0.21039 0.20589 0.28464 0.3223 0.0742 0.11642 0.25255 0.33737 0.39623 0.49101 0.14368 0.15363 0.26704 0.30603 0.27414 0.33867 0.022 0.10086 1.1228 1.6642 1.2183 1.7302 0.0495 0.0342 0.0589 0.0628 0.0208 0.0635-0.0759 1e-3 0.2612 0.51385 0.40385 0.61384 0.0488 0.0342 0.0588 0.0628 0.0223 0.0635-0.0366 7.1e-4 -0.0209 0.087 0.0348 0.19179l0.10132 0.1905-0.34517-0.29633c-0.18984-0.16298-0.34839-0.32897-0.35233-0.36886-0.0289-0.2929-3.7315-3.6558-3.7997-3.4511-0.0173 0.052-0.0661 0.0947-0.10843 0.0947-0.0423 0-0.23921 0.12382-0.4376 0.27516-0.1984 0.15134-0.58926 0.38947-0.86857 0.52917s-0.53583 0.2921-0.57004 0.33867c-0.0342 0.0466-0.0628 0.0547-0.0635 0.0182-7.2e-4 -0.0366-0.087-0.0193-0.1918 0.0383-0.10478 0.0576-0.2286 0.11407-0.27517 0.12548-0.0466 0.0114-0.46566 0.13932-0.93133 0.28424-0.46567 0.14493-1.0753 0.2836-1.3547 0.30816-0.2794 0.0246-0.71755 0.0707-0.97366 0.10258-1.117 0.13893-5.2738-0.0688-5.4788-0.27386-0.0503-0.0503 0.14253-0.10157 0.9915-0.26355 0.39582-0.0755 0.77682-0.15996 0.84667-0.18763 0.0699-0.0277 0.2032-0.0641 0.29633-0.0809 0.0931-0.0168 0.22649-0.055 0.29634-0.0847 0.0698-0.0298 0.1651-0.0634 0.21166-0.0747 0.47752-0.1161 1.6561-0.73074 1.7216-0.89783 0.0155-0.0396 0.0713-0.072 0.12402-0.072 0.10627 0 0.28003-0.15216 0.98658-0.86394 0.26367-0.26562 0.5344-0.58894 0.60162-0.71848 0.0672-0.12955 0.17937-0.30398 0.24922-0.38764 0.0699-0.0837 0.12428-0.17943 0.12095-0.21285-3e-3 -0.0334 0.0477-0.11449 0.11337-0.18017l0.11942-0.11942-0.138-0.0772c-0.0759-0.0425-0.22378-0.0864-0.32862-0.0975-0.10484-0.0112-0.2271-0.042-0.2717-0.0686-0.0798-0.0475-0.55249-0.16378-0.80075-0.19699-0.0699-9e-3 -0.18799-0.0432-0.26253-0.0753-0.0745-0.0321-0.1698-0.0504-0.21167-0.0406-0.0419 0.01-0.14445-0.0121-0.22795-0.0486-0.0835-0.0364-0.17424-0.0438-0.20163-0.0164-0.0274 0.0274-0.1158 0.0145-0.19645-0.0287-0.39972-0.21392-3.735-0.27885-4.6994-0.0915-0.2794 0.0543-0.59184 0.0976-0.6943 0.0963-0.10247-1e-3 -0.20988 0.0357-0.23868 0.0823-0.02881 0.0466-0.08466 0.0648-0.12412 0.0404-0.07065-0.0437-0.85416 0.0897-1.1019 0.18762-0.06985 0.0276-0.15991 0.0427-0.20013 0.0335-0.07246-0.0165-0.91014 0.20369-1.1545 0.30347-0.06985 0.0285-0.15311 0.0466-0.18503 0.0402-0.06079-0.0122-0.52567 0.14689-0.95797 0.32779-0.1397 0.0585-0.2921 0.11536-0.33867 0.12645-0.48747 0.11609-3.6084 1.5296-3.7029 1.677-0.03421 0.0534-0.06279 0.0651-0.0635 0.026-0.0016-0.0853-1.2867 0.60557-1.3758 0.73962-0.03421 0.0514-0.06279 0.064-0.0635 0.0279-0.0016-0.0791-1.2872 0.61064-1.3758 0.73816-0.03421 0.0492-0.06279 0.063-0.0635 0.0306-7.13e-4 -0.0324-0.31562 0.11199-0.6998 0.32092s-1.1176 0.59241-1.6298 0.85218c-0.51223 0.25977-0.94411 0.50611-0.95973 0.54744-0.01562 0.0413-0.06324 0.0536-0.10583 0.0273-0.04259-0.0263-0.07744-5e-3 -0.07744 0.0468 0 0.0521-0.03503 0.073-0.07784 0.0465-0.04281-0.0264-0.13353 8e-3 -0.20159 0.0756-0.06806 0.0681-0.14733 0.10016-0.17616 0.0713-0.02883-0.0288-0.05241-0.0143-0.05241 0.0323s-0.05098 0.0847-0.11328 0.0847c-0.06231 0-0.56713 0.24989-1.1218 0.55531-0.5547 0.30542-1.0943 0.58103-1.1991 0.61248-0.10478 0.0315-0.1905 0.095-0.1905 0.14113 0 0.0462-0.0381 0.0604-0.08467 0.0316s-0.08467-0.0201-0.08467 0.0193-0.0823 0.0779-0.18288 0.0854c-0.10058 8e-3 -0.20536 0.0443-0.23283 0.0815-0.02747 0.0373-0.10363 0.0793-0.16923 0.0934-0.0656 0.0141-0.24727 0.0791-0.4037 0.14449-0.15643 0.0654-0.30225 0.122-0.32404 0.12586-0.02179 4e-3 -0.20207 0.0648-0.40063 0.13534-0.57002 0.20261-1.5186 0.46367-1.8427 0.50713-0.16298 0.0219-0.36862 0.0621-0.45698 0.0895-0.38797 0.1201-3.4646 0.19657-3.8417 0.0955zm34.047-24.636c0.13335-0.0253 0.27565-0.0985 0.31621-0.16248 0.0406-0.064 0.0743-0.0832 0.075-0.0425 7.1e-4 0.0406 0.0584 0.0264 0.12829-0.0315l0.127-0.1054v-4.525l-0.15126-0.13689c-0.0832-0.0753-0.30227-0.20286-0.48684-0.28349l-0.33556-0.14659-1.181 0.0176c-1.17 0.0175-1.8246 0.1152-1.8246 0.27235 0 0.0448-0.0286 0.0722-0.0635 0.0609-0.1282-0.0415-0.60641 0.47125-0.73178 0.78458l-0.1291 0.32268 0.0328 1.4388 0.0328 1.4389 0.12546 0.24028c0.17184 0.32908 0.54799 0.67214 0.8983 0.81926l0.29205 0.12266 1.3166-0.019c0.72414-0.0104 1.4257-0.0397 1.5591-0.0651zm-35.718 16.497c-0.1397-0.0532-0.32739-0.16298-0.41709-0.24402-0.0897-0.081-0.22733-0.16773-0.30585-0.19265-0.07852-0.0249-0.27183-0.29955-0.42958-0.61028l-0.28681-0.56496-0.0142-1.0942 0.19408-0.38877c0.92089-1.8447 3.3992-1.8154 4.2332 0.05l0.1445 0.32322 0.019 1.1007-0.17162 0.35041c-0.25876 0.52832-0.72485 0.99057-1.2087 1.1987l-0.43363 0.18654-0.53464-9e-3c-0.29405-5e-3 -0.64894-0.0525-0.78864-0.10569zm-7.5513-14.63c-0.17748-0.0304-0.57033-0.073-0.87302-0.0946s-0.62653-0.0694-0.71967-0.10625c-0.70068-0.27701-0.97367-0.37046-0.97367-0.33331 0 0.0237-0.08877-0.0151-0.19726-0.0862-0.10849-0.0711-0.22279-0.10371-0.254-0.0725-0.03121 0.0312-0.05674 0.0148-0.05674-0.0363 0-0.0843-0.33489-0.24157-0.41387-0.19434-0.01808 0.0108-0.05618-0.0142-0.08467-0.0555-0.02849-0.0414-0.2042-0.16729-0.39047-0.27984-0.49037-0.29631-1.4844-1.2477-1.767-1.6911-0.13363-0.20973-0.27675-0.3941-0.31803-0.40972-0.04128-0.0156-0.05542-0.0602-0.03142-0.099s-0.01658-0.13083-0.09019-0.20444c-0.0736-0.0736-0.11128-0.13382-0.08372-0.13382s-0.02165-0.14288-0.10935-0.3175c-0.0877-0.17463-0.22478-0.52705-0.30462-0.78317-0.07985-0.25612-0.16656-0.52282-0.1927-0.59267-0.04969-0.13281-0.06281-0.1924-0.14906-0.67733-0.10583-0.595-0.11092-1.0479-0.11571-10.287-6e-3 -11.612-0.03291-11.133 0.68324-12.182 0.15246-0.22331 0.33704-0.50744 0.4102-0.63141 0.07315-0.12396 0.23752-0.27626 0.36526-0.33844 0.12774-0.0622 0.25294-0.16696 0.27822-0.23284 0.02528-0.0659 0.09185-0.11977 0.14794-0.11977s0.17584-0.0687 0.26611-0.15274c0.37063-0.34489 1.79-0.83083 2.6334-0.90161l0.43729-0.0367 0.06562 0.14336c0.03609 0.0788 0.07147 5.4773 0.07862 11.997 0.0072 6.5193 0.03525 12.025 0.06245 12.234s0.07004 0.54384 0.09521 0.74288c0.02517 0.19903 0.08645 0.51297 0.13618 0.69764l0.09041 0.33578 0.18747 0.0461c0.2654 0.0652 13.92 0.01 13.987-0.0569 0.19952-0.19963 0.01175-4.8425-0.20649-5.1055-0.04775-0.0575-0.06174-0.12967-0.0311-0.16031 0.03064-0.0306 9e-3 -0.0557-0.04806-0.0557-0.05708 0-0.08367-0.0325-0.0591-0.0723 0.10179-0.16469-0.95036-1.5364-1.1785-1.5364-0.05945 0-0.13095-0.0596-0.15888-0.13236-0.02794-0.0728-0.08916-0.10865-0.13606-0.0797-0.0469 0.029-0.08526 0.0199-0.08526-0.0201s-0.18098-0.16139-0.40217-0.26967c-0.92472-0.45269-1.3141-0.49215-4.3533-0.44116l-0.8185 0.0137-0.0049 1.045c-0.0027 0.57475-0.0241 1.0982-0.04751 1.1631-0.02341 0.065-0.0058 0.55626 0.03914 1.0918s0.0818 1.0759 0.08192 1.2009c1.19e-4 0.12499 0.03935 0.25145 0.08718 0.28101 0.04783 0.0296 0.06402 0.0909 0.03597 0.13628-0.02805 0.0454-0.01286 0.12848 0.03375 0.18465 0.0833 0.10036 0.09915 0.1498 0.09915 0.30908 0 0.21372 0.8508 0.907 1.1633 0.9479 0.03541 5e-3 0.15259 0.042 0.2604 0.083 0.10781 0.041 0.2964 0.0745 0.4191 0.0745h0.22309l-0.08043 0.0711c-0.04424 0.0391-0.19473 0.11428-0.33443 0.16707-0.1397 0.0528-0.3683 0.14048-0.508 0.19488s-0.31115 0.10899-0.381 0.1213c-0.06985 0.0123-0.4318 0.0848-0.80433 0.16107-0.37253 0.0763-1.0446 0.14094-1.4934 0.14371l-0.81608 5e-3 -0.49626-0.1424c-0.62676-0.17986-1.1329-0.47162-1.4294-0.82398-0.24901-0.29593-0.89473-1.5554-0.83042-1.6197 0.02145-0.0214-5e-3 -0.20228-0.05871-0.40185l-0.09771-0.36285 0.01073-4.4072c0.01274-5.2361-0.54895-4.5256 3.6042-4.5589 4.5838-0.0367 8.2195 0.0565 8.4801 0.21755 0.05323 0.0329 0.19544 0.068 0.31601 0.078s0.21923 0.0479 0.21923 0.0844c0 0.0364 0.03958 0.0662 0.08795 0.0662 0.13576 0 1.4642 0.61709 1.5903 0.73873 0.06154 0.0594 0.16223 0.10793 0.22378 0.10793 0.06154 0 0.13592 0.0626 0.16528 0.13912 0.02936 0.0765 0.07471 0.11779 0.10078 0.0917 0.02607-0.0261 0.11303 0.0161 0.19325 0.0937 0.08022 0.0776 0.32469 0.30382 0.54328 0.50269s0.39743 0.37793 0.39743 0.39792c0 0.0686 0.54339 0.84916 0.6109 0.87757 0.03712 0.0156 0.04785 0.0602 0.02385 0.099s0.0043 0.12222 0.06297 0.18529c0.05864 0.0631 0.12044 0.17092 0.13735 0.23966 0.01691 0.0687 0.10462 0.37263 0.19492 0.67531 0.0903 0.30269 0.18065 0.74084 0.2008 0.97367 0.02014 0.23283 0.05874 0.61313 0.08577 0.8451s0.04757 1.765 0.04565 3.4067l-0.0035 2.985 0.18847 0.0421c0.10366 0.0231 0.32182 0.0332 0.48481 0.0223l0.29633-0.0198 0.02249 2.3918 0.02248 2.3918-0.10715 4e-3c-0.05893 2e-3 -3.6124 0.013-7.8965 0.0237-4.2841 0.0107-8.368 0.0374-9.0753 0.0593-0.70729 0.0219-1.4312 0.0149-1.6087-0.0155zm66.098-21.052c0-0.0528-0.12383-0.23754-0.27517-0.41062-0.5947-0.68013-1.1353-1.2532-1.4181-1.5033-0.16295-0.14411-0.50234-0.4811-0.75419-0.74886-0.25185-0.26775-0.50905-0.48683-0.57156-0.48683-0.0625 0-0.11364-0.0348-0.11364-0.0774 0-0.0992-1.0518-0.93862-1.1762-0.93862-0.0516 0-0.0938-0.0344-0.0938-0.0765 0-0.084-1.1987-0.87433-1.5811-1.0425-0.13158-0.0579-0.25829-0.12944-0.28157-0.15906-0.0885-0.11256-0.74344-0.4056-0.79385-0.35519-0.0291 0.0291-0.0528 0.0125-0.0528-0.0368 0-0.077-0.40427-0.23292-0.49853-0.19232-0.0181 8e-3 -0.0562-0.0216-0.0847-0.0653-0.0396-0.0608-0.71336-0.32641-1.0255-0.40433-0.0233-6e-3 -0.15496-0.0571-0.29261-0.11385-0.38758-0.15993-1.4265-0.43532-1.4717-0.39011-0.0222 0.0222-0.0854 3e-3 -0.14027-0.0424-0.0549-0.0456-0.25275-0.0966-0.43966-0.11346-0.1869-0.0168-0.37409-0.0508-0.41596-0.0756-0.33782-0.19942-3.5063-0.34722-4.6058-0.21484-0.20955 0.0252-0.60531 0.0702-0.87947 0.0999s-0.53893 0.079-0.58839 0.10959c-0.0495 0.0306-0.16804 0.0645-0.26353 0.0753-0.0955 0.0109-0.28791 0.0437-0.42761 0.073s-0.33784 0.0521-0.4403 0.0508c-0.10247-1e-3 -0.20846 0.0334-0.23555 0.0772-0.0271 0.0438-0.10334 0.0589-0.16947 0.0335-0.0661-0.0254-0.16969-0.0153-0.23012 0.0225-0.0604 0.0377-0.14799 0.077-0.19456 0.0872-0.0466 0.0102-0.17718 0.039-0.29025 0.0639-0.26343 0.0581-1.7994 0.56416-1.9111 0.62967-0.0466 0.0273-0.15422 0.0605-0.23923 0.0737-0.085 0.0132-0.23741 0.0697-0.33867 0.12538-0.10126 0.0557-0.22987 0.10903-0.2858 0.11846-0.0559 9e-3 -0.31391 0.11429-0.57328 0.23303-0.25936 0.11874-0.49004 0.2172-0.51262 0.21879-0.0226 2e-3 -0.27895 0.12521-0.56973 0.27469-0.29077 0.14949-0.55725 0.26422-0.59217 0.25497-0.0349-9e-3 -0.0635 0.0235-0.0635 0.0728s-0.0381 0.0661-0.0847 0.0373-0.0847-0.01-0.0847 0.0423c0 0.0521-0.035 0.073-0.0778 0.0466-0.0428-0.0265-0.14487 0.0189-0.22679 0.10084-0.0819 0.0819-0.17071 0.13987-0.19732 0.12879-0.0945-0.0394-0.34472 0.0752-0.34472 0.15786 0 0.0462-0.0381 0.0604-0.0847 0.0316s-0.0847-6e-3 -0.0847 0.0514c0 0.0571-0.0243 0.0795-0.0539 0.0498-0.0297-0.0297-0.15804 0.0202-0.28527 0.11078-0.12724 0.0906-0.32204 0.19949-0.43289 0.24198-0.22512 0.0863-4.4693 2.3354-4.6075 2.4417-0.04839 0.0372-0.14364 0.08-0.21167 0.0951s-0.13647 0.063-0.15209 0.10636c-0.01562 0.0434-0.06324 0.0573-0.10583 0.031-0.04259-0.0263-0.07744-5e-3 -0.07744 0.0468 0 0.0521-0.0381 0.0711-0.08467 0.0423s-0.08467-6e-3 -0.08467 0.0514c0 0.0571-0.02533 0.0785-0.05628 0.0475s-0.33868 0.096-0.68383 0.28222c-0.34516 0.18617-0.66273 0.3385-0.70572 0.3385h-0.07817v-6.5879l0.40217-0.23355c0.22119-0.12845 0.42548-0.26868 0.45397-0.31161 0.02849-0.0429 0.08564-0.0774 0.127-0.0766 0.09303 2e-3 2.9377-1.4285 2.9962-1.5065 0.0233-0.031 0.16616-0.10652 0.3175-0.16774 0.15134-0.0612 0.27517-0.15112 0.27517-0.1998 0-0.0487 0.0219-0.0666 0.0486-0.0399s0.36008-0.12179 0.74083-0.32999c0.63353-0.34644 2.0133-1.0313 2.2163-1.1 1.1896-0.40285 2.7601-0.92488 2.8412-0.94437 0.0588-0.0141 0.41509-0.10226 0.79181-0.19584 0.37672-0.0936 0.87544-0.18877 1.1083-0.21151 0.23284-0.0227 0.48049-0.0625 0.55034-0.0884 0.2115-0.0783 0.73112-0.10401 2.3707-0.11742l1.5663-0.0128 0.889 0.13817c0.48895 0.076 1.0414 0.17939 1.2277 0.22977 0.18627 0.0504 0.37677 0.10029 0.42334 0.1109 0.90407 0.20601 3.1621 0.97875 3.5983 1.2314 0.38413 0.22249 1.067 0.54308 1.1218 0.52667 0.0349-0.0104 0.0635 0.0165 0.0635 0.06 0 0.0434 0.0828 0.10524 0.18399 0.13736 0.1012 0.0321 0.25937 0.12861 0.35149 0.21444 0.0921 0.0858 0.19983 0.13607 0.23934 0.11165 0.0395-0.0244 0.0718-0.0105 0.0718 0.0309s0.10478 0.12942 0.23284 0.1955c0.12806 0.0661 0.32769 0.20586 0.44363 0.31064 0.11594 0.10477 0.25882 0.1905 0.3175 0.1905 0.0587 0 0.107 0.0286 0.10737 0.0635s0.27238 0.27305 0.60447 0.52916c0.33208 0.25612 0.66515 0.52485 0.74016 0.59717 0.075 0.0723 0.34592 0.3073 0.60203 0.52216 0.6544 0.54898 2.1699 2.0982 2.8392 2.9023 0.31007 0.37253 0.62452 0.72496 0.69878 0.78317 0.0743 0.0582 0.0992 0.1071 0.0553 0.10865-0.0438 2e-3 0.0103 0.0777 0.1202 0.16933 0.10993 0.0916 0.16708 0.16773 0.127 0.16921-0.0401 1e-3 -0.0157 0.0491 0.0541 0.10583 0.0699 0.0567 0.17919 0.20444 0.24299 0.32824s0.22358 0.34287 0.35506 0.48683c0.13149 0.14396 0.22033 0.26174 0.19744 0.26174-0.0591 0 0.49269 0.79844 0.57541 0.83256 0.0376 0.0155 0.0684 0.0795 0.0684 0.14212 0 0.0626 0.0492 0.16424 0.10941 0.22577 0.15175 0.15519 0.34826 0.6561 0.28299 0.72138-0.0296 0.0296-0.0537 0.0106-0.0537-0.0422zm-58.124-8.4273c-0.83647-0.27595-1.3453-0.65404-1.5856-1.1782-0.05871-0.12806-0.12744-0.23284-0.15273-0.23284-0.23986 0-0.08888-1.8565 0.17214-2.1167 0.02336-0.0233 0.15671-0.17569 0.29633-0.33868 0.13962-0.16298 0.28164-0.30765 0.3156-0.32148 0.03396-0.0138 0.24351-0.1076 0.46567-0.20838l0.40393-0.18324 1.0591 6e-3 0.56324 0.29358 0.56324 0.29359 0.31168 0.58501 0.31168 0.58502-0.03826 1.0755-0.52033 1.0569-0.53057 0.31387c-0.29181 0.17263-0.61491 0.31387-0.718 0.31387s-0.20803 0.0333-0.23322 0.0741c-0.05933 0.096-0.36296 0.0881-0.68388-0.0178z" fill="#f9f9f9"/></g></svg>
